<?xml version="1.0" standalone="no"?><!DOCTYPE svg PUBLIC "-//W3C//DTD SVG 1.1//EN" "http://www.w3.org/Graphics/SVG/1.1/DTD/svg11.dtd"><svg t="1600593883614" class="icon" viewBox="0 0 1024 1024" version="1.1" xmlns="http://www.w3.org/2000/svg" p-id="2123" xmlns:xlink="http://www.w3.org/1999/xlink" width="200" height="200"><defs><style type="text/css"></style></defs><path d="M285.983 682.252c-15.805 0.353-52.697 16.185-80.147 34.277-1.103 4.223-2.053 8.42-2.673 12.506a12.001 12.001 0 0 0 5.539 12.008c4.073 2.563 9.281 2.402 13.217-0.357 27.76-19.403 68.289-37.09 85.023-37.475 11.956 4.117 19.805 7.961 27.835 14.398-19.27-21.654-27.611-28.064-48.794-35.357" fill="#2c2c2c" p-id="2124"></path><path d="M593.806 656.324h45.479c8.77 0 15.869 4.502 15.869 10.059 0 5.562-7.101 10.063-15.869 10.063h-2.116c-8.771 0-15.881 4.506-15.881 10.063 0 5.549 7.11 10.063 15.881 10.063h97.77c8.779 0 15.88 4.502 15.88 10.051 0 5.561-7.101 10.063-15.88 10.063H488.303c-8.758 0-15.88-4.502-15.88-10.063 0-5.549 7.122-10.051 15.88-10.051h27.129c8.769 0 15.88-4.515 15.88-10.063 0-5.557-7.111-10.063-15.88-10.063H386.298c-8.77 0-15.88-4.502-15.88-10.063 0-5.557 7.11-10.059 15.88-10.059h207.508zM252.63 488.089h14.64c2.833 0 5.122 2.477 5.122 5.534 0 3.042-2.289 5.518-5.122 5.518h-0.674c-2.823 0-5.111 2.477-5.111 5.529 0 3.047 2.288 5.528 5.111 5.528h31.48c2.823 0 5.111 2.476 5.111 5.521 0 3.056-2.288 5.529-5.111 5.529H218.667c-2.823 0-5.111-2.475-5.111-5.529 0-3.046 2.288-5.521 5.111-5.521h8.735c2.823 0 5.112-2.481 5.112-5.528 0-3.054-2.289-5.529-5.112-5.529h-41.575c-2.823 0-5.111-2.476-5.111-5.518 0-3.059 2.289-5.534 5.111-5.534h66.803zM787.176 585.385h14.639c2.823 0 5.112 2.476 5.112 5.533 0 3.053-2.289 5.519-5.112 5.519h-0.684c-2.823 0-5.111 2.477-5.111 5.528 0 3.06 2.288 5.527 5.111 5.527h31.48c2.813 0 5.102 2.477 5.102 5.522 0 3.054-2.288 5.529-5.102 5.529h-79.41c-2.822 0-5.11-2.477-5.11-5.529 0-3.047 2.288-5.522 5.11-5.522h8.737c2.822 0 5.111-2.469 5.111-5.527 0-3.053-2.289-5.528-5.111-5.528h-41.577c-2.822 0-5.111-2.466-5.111-5.519 0-3.059 2.289-5.533 5.111-5.533h66.815z" fill="#2c2c2c" p-id="2125"></path><path d="M377.017 756.641a11.962 11.962 0 0 1-9.079-4.139c-28.84-33.277-35.813-40.625-60.996-49.287-16.734 0.375-57.264 18.072-85.023 37.465-3.946 2.761-9.144 2.931-13.217 0.369a11.994 11.994 0 0 1-5.539-12.014c6.63-43.604 40.795-97.289 100.411-114.928 58.782-112.656 141.604-185.693 182.42-217.144-18.436-26.798-51.231-32.915-70.224-34.102-5.796-0.379-10.501-4.828-11.187-10.586-0.673-5.758 2.866-11.191 8.405-12.891 39.983-12.26 91.525-5.427 135.937 16.864 7.144-3.636 13.677-6.566 19.44-8.726 33.16-12.527 58.493-18.382 79.688-18.382 35.534 0 60.932 16.837 79.483 52.81 31.492 3.187 47.383 10.918 51.2 24.75 3.326 12.089-4.973 23.05-13.837 29.29-2.3 1.588-5.133 2.342-7.85 2.123-34.348-2.771-70.822 2.759-110.581 16.066 2.374 42.144-13.389 111.624-22.916 125.915-2.94 4.38-8.416 6.349-13.475 4.808a12.008 12.008 0 0 1-8.521-11.49c0-16.895-9.785-34.01-28.295-49.482-9.047-7.565-15.015-17.757-17.271-28.306-84.38 48.073-154.285 112.31-185.69 143.272 7.816 28.67 17.805 75.217 18.66 102.176a11.89 11.89 0 0 1 0.545 3.561c0 6.711-5.411 11.506-12.233 12.011h-0.255v-0.003z" fill="#2c2c2c" p-id="2126"></path><path d="M591.912 367.44a5.47 5.47 0 0 1-5.121-3.545 5.466 5.466 0 0 1 3.187-7.052c31.289-11.816 55.274-17.323 75.517-17.323a5.476 5.476 0 0 1 0 10.95c-18.873 0-41.64 5.277-71.646 16.612a5.5 5.5 0 0 1-1.937 0.358" fill="#2c2c2c" p-id="2127"></path><path d="M706.568 360.992c2.962 0.299 5.635 0.679 8.319 1.053-5.956-7.742-12.458-14.18-19.622-19.131 3.989 5.433 7.816 11.304 11.303 18.078" fill="#2c2c2c" p-id="2128"></path><path d="M407.343 343.358c-2.011 2.454-3.145 5.577-2.759 8.918a12.031 12.031 0 0 0 11.175 10.586c12.735 0.797 31.599 3.973 48.26 13.939 0.321-0.251 0.684-0.556 1.005-0.797-14.843-21.583-38.914-29.662-57.681-32.646" fill="#2c2c2c" p-id="2129"></path><path d="M370.312 638.896c30.53-30.113 97.471-91.605 178.699-139.176-7.122-7.128-12.021-15.906-13.978-25.061-84.383 48.068-154.274 112.302-185.682 143.283 7.806 28.662 17.794 75.2 18.66 102.176 0.342 1.123 0.534 2.309 0.534 3.555 0 6.699-5.411 11.512-12.233 12.014h-0.257c-1.24 0-2.427-0.405-3.614-0.778 4.47 4.93 9.496 10.678 15.505 17.596a11.968 11.968 0 0 0 9.068 4.144h0.256c6.822-0.509 12.233-5.304 12.233-12.015 0-1.233-0.192-2.432-0.535-3.561-0.853-26.962-10.851-73.509-18.656-102.177" fill="#2c2c2c" p-id="2130"></path><path d="M778.738 406.696c-2.276-8.245-8.961-14.276-20.563-18.516 1.668 11.105-5.979 21.023-14.233 26.841-2.299 1.599-5.144 2.353-7.859 2.123-34.348-2.77-70.821 2.77-110.58 16.067 2.374 42.159-13.379 111.623-22.905 125.926-0.729 1.08-1.615 2-2.6 2.771 0.983 3.834 1.563 7.674 1.563 11.506 0 5.289 3.454 9.957 8.521 11.49 5.048 1.541 10.522-0.429 13.475-4.808 9.528-14.291 25.278-83.771 22.905-125.915 39.77-13.309 76.244-18.837 110.592-16.066 2.706 0.219 5.55-0.535 7.85-2.123 8.862-6.241 17.15-17.207 13.834-29.296" fill="#2c2c2c" p-id="2131"></path><path d="M345.257 575.76c-0.974 0-1.957-0.25-2.855-0.797a5.474 5.474 0 0 1-1.817-7.521c3.165-5.203 78.318-127.547 133.925-137.92 2.919-0.557 5.828 1.396 6.384 4.374s-1.401 5.833-4.374 6.384c-50.837 9.479-125.841 131.62-126.589 132.854a5.458 5.458 0 0 1-4.674 2.626" fill="#2c2c2c" p-id="2132"></path></svg>